<?xml version="1.0" encoding="UTF-8"?>
<svg width="1280" height="400" viewBox="0 0 1280 400" xmlns="http://www.w3.org/2000/svg">
  <!-- Logo shape -->
  <path fill="#F15286" d="M502.007812 244.703125C468.632812 252 436.253906 253.324219 410.617188 259.84375C384.476562 266.492188 366.742188 277.144531 360.714844 289.730469C358.050781 295.761719 356.453125 300.277344 352.691406 299.046875C347.441406 297.328125 337.304688 282.679688 328.882812 258.796875C312.4375 218.5 317.121094 164.152344 343.269531 112.082031C369.191406 60.464844 409.875 23.226562 447.40625 9.207031C469.300781 0.171875 495.613281 1.285156 526.628906 22.488281C547.449219 36.722656 567.234375 58.175781 581.933594 82.820312C602.96875 123.398438 599.847656 165.222656 582.671875 193.773438C564.964844 223.203125 535.625 237.355469 502.007812 244.703125Z"/>
  
  <!-- Text batela -->
  <text x="400" y="220" fill="#1F8BCB" font-family="Montserrat" font-size="120" font-weight="bold">batela</text>
  
  <!-- Text connect -->
  <text x="400" y="300" fill="#1F8BCB" font-family="Montserrat" font-size="80">connect</text>
</svg>